<svg width="710" height="451" viewBox="0 0 710 451" fill="none" xmlns="http://www.w3.org/2000/svg">
<rect width="710" height="451" fill="white"/>
<rect x="234" y="174" width="131" height="142" rx="16" fill="#FFE4E4"/>
<g style="mix-blend-mode:multiply">
<rect x="14" y="142" width="657" height="28" fill="#E0EEF8"/>
</g>
<g style="mix-blend-mode:multiply">
<rect x="343" y="180" width="84" height="26" rx="7" fill="#B6D9ED"/>
</g>
<g style="mix-blend-mode:multiply">
<rect x="249" y="180" width="84" height="26" rx="7" fill="#B6D9ED"/>
</g>
<g style="mix-blend-mode:multiply">
<circle cx="126.5" cy="304.5" r="17.5" fill="#FFC1C1"/>
</g>
<g style="mix-blend-mode:multiply">
<rect x="109" y="327" width="35" height="9" fill="#FFC1C1"/>
</g>
<g style="mix-blend-mode:multiply">
<rect x="109" y="340" width="35" height="9" fill="#FFC1C1"/>
</g>
<rect x="365" y="187" width="12" height="12" fill="white" fill-opacity="0.47"/>
<rect x="271" y="187" width="12" height="12" fill="white" fill-opacity="0.47"/>
<rect x="379" y="187" width="12" height="12" fill="white" fill-opacity="0.47"/>
<rect x="285" y="187" width="12" height="12" fill="white" fill-opacity="0.47"/>
<rect x="393" y="187" width="12" height="12" fill="white" fill-opacity="0.47"/>
<rect x="299" y="187" width="12" height="12" fill="white" fill-opacity="0.47"/>
<rect x="407" y="187" width="12" height="12" fill="white" fill-opacity="0.47"/>
<rect x="313" y="187" width="12" height="12" fill="white" fill-opacity="0.47"/>
<rect x="656" y="289" width="19" height="8" rx="4" transform="rotate(180 656 289)" fill="#E6D1D1"/>
<rect x="653" y="269" width="19" height="8" rx="4" transform="rotate(180 653 269)" fill="#D1E6D2"/>
<rect x="653" y="249" width="19" height="8" rx="4" transform="rotate(180 653 249)" fill="#D1E6D2"/>
<circle cx="637" cy="285" r="7" transform="rotate(180 637 285)" fill="#DF8787"/>
<circle cx="653" cy="265" r="7" transform="rotate(180 653 265)" fill="#8DC18F"/>
<circle cx="653" cy="245" r="7" transform="rotate(180 653 245)" fill="#8DC18F"/>
<mask id="mask0" mask-type="alpha" maskUnits="userSpaceOnUse" x="351" y="189" width="8" height="8">
<path d="M358.5 193.5H355.5V196.5H354.5V193.5H351.5V192.5H354.5V189.5H355.5V192.5H358.5V193.5Z" fill="white"/>
</mask>
<g mask="url(#mask0)">
<rect x="349" y="187" width="12" height="12" fill="white"/>
</g>
<mask id="mask1" mask-type="alpha" maskUnits="userSpaceOnUse" x="257" y="189" width="8" height="8">
<path d="M264.5 193.5H261.5V196.5H260.5V193.5H257.5V192.5H260.5V189.5H261.5V192.5H264.5V193.5Z" fill="white"/>
</mask>
<g mask="url(#mask1)">
<rect x="255" y="187" width="12" height="12" fill="white"/>
</g>
<mask id="mask2" mask-type="alpha" maskUnits="userSpaceOnUse" x="38" y="162" width="36" height="24">
<path fill-rule="evenodd" clip-rule="evenodd" d="M38.75 166.333V162.5H73.25V166.333H38.75ZM38.75 175.917H73.25V172.083H38.75V175.917ZM38.75 185.5H73.25V181.667H38.75V185.5Z" fill="white"/>
</mask>
<g mask="url(#mask2)">
<rect x="33" y="151" width="46" height="46" fill="#68A1BE"/>
</g>
<mask id="mask3" mask-type="alpha" maskUnits="userSpaceOnUse" x="598" y="22" width="81" height="81">
<path fill-rule="evenodd" clip-rule="evenodd" d="M598.917 62.5C598.917 40.65 616.65 22.9167 638.5 22.9167C660.35 22.9167 678.083 40.65 678.083 62.5C678.083 84.35 660.35 102.083 638.5 102.083C616.65 102.083 598.917 84.35 598.917 62.5ZM642.458 66.4583H658.292V58.5417H642.458V42.7083H634.542V58.5417H618.708V66.4583H634.542V82.2917H642.458V66.4583Z" fill="white"/>
</mask>
<g mask="url(#mask3)">
<rect x="591" y="15" width="95" height="95" fill="#F9F0D0"/>
</g>
<mask id="mask4" mask-type="alpha" maskUnits="userSpaceOnUse" x="88" y="48" width="73" height="73">
<path fill-rule="evenodd" clip-rule="evenodd" d="M136.679 93.75H139.938L160.521 114.375L154.375 120.521L133.75 99.9375V96.6787L132.636 95.5238C127.934 99.5662 121.829 102 115.188 102C100.379 102 88.375 89.9963 88.375 75.1875C88.375 60.3788 100.379 48.375 115.188 48.375C129.996 48.375 142 60.3788 142 75.1875C142 81.8288 139.566 87.9337 135.524 92.6362L136.679 93.75ZM96.625 75.1875C96.625 85.4587 104.916 93.75 115.187 93.75C125.459 93.75 133.75 85.4587 133.75 75.1875C133.75 64.9162 125.459 56.625 115.187 56.625C104.916 56.625 96.625 64.9162 96.625 75.1875Z" fill="white"/>
</mask>
<g mask="url(#mask4)">
<rect x="76" y="36" width="99" height="99" fill="#78CECE"/>
</g>
<g style="mix-blend-mode:multiply">
<rect x="72" y="231" width="128" height="196" rx="24" fill="#F0F9F9"/>
</g>
<g style="mix-blend-mode:multiply">
<rect x="522" y="189" width="174" height="216" rx="27" fill="#E8FFE0"/>
</g>
<g style="mix-blend-mode:multiply">
<rect x="161" y="87" width="435" height="288" rx="27" fill="#FBF0FA"/>
</g>
<rect x="56.5" y="61.5" width="57" height="57" rx="10.5" stroke="#424E54" stroke-width="3"/>
<path d="M67.5 128C67.5 130.485 69.5147 132.5 72 132.5H98C100.485 132.5 102.5 130.485 102.5 128V118.5H67.5V128Z" stroke="#424E54" stroke-width="3"/>
<path d="M102.5 52C102.5 49.5147 100.485 47.5 98 47.5L72 47.5C69.5147 47.5 67.5 49.5147 67.5 52L67.5 61.5L102.5 61.5L102.5 52Z" stroke="#424E54" stroke-width="3"/>
<rect x="112" y="87" width="6" height="6" rx="3" fill="#424E54"/>
<rect x="1.5" y="-1.5" width="24" height="7" rx="3.5" transform="matrix(1 0 0 -1 113 405)" stroke="#424E54" stroke-width="3"/>
<path d="M384 78.5C384 77.6716 384.672 77 385.5 77H420.5C421.328 77 422 77.6716 422 78.5C422 79.3284 421.328 80 420.5 80H385.5C384.672 80 384 79.3284 384 78.5Z" fill="#424E54"/>
<path fill-rule="evenodd" clip-rule="evenodd" d="M559 80H458.5C457.672 80 457 79.3284 457 78.5C457 77.6716 457.672 77 458.5 77H559C573.912 77 586 89.0883 586 104V338C586 352.912 573.912 365 559 365H410.5C407.739 365 405.5 367.239 405.5 370V388.189C405.5 395.369 411.32 401.189 418.5 401.189H441C443.761 401.189 446 403.428 446 406.189V420C446 422.761 443.761 425 441 425H296C293.239 425 291 422.761 291 420V406.189C291 403.428 293.239 401.189 296 401.189H318C325.18 401.189 331 395.369 331 388.189V370C331 367.239 328.761 365 326 365H178C163.088 365 151 352.912 151 338V326.5C151 325.672 151.672 325 152.5 325C153.328 325 154 325.672 154 326.5V338C154 351.255 164.745 362 178 362H559C572.255 362 583 351.255 583 338V104C583 90.7452 572.255 80 559 80ZM339 365C336.239 365 334 367.239 334 370V388.189C334 397.026 326.837 404.189 318 404.189H299C296.239 404.189 294 406.428 294 409.189V417C294 419.761 296.239 422 299 422H438C440.761 422 443 419.761 443 417V409.189C443 406.428 440.761 404.189 438 404.189H418.5C409.663 404.189 402.5 397.026 402.5 388.189V370C402.5 367.239 400.261 365 397.5 365H339Z" fill="#424E54"/>
<path d="M335 78.5C335 77.6716 334.328 77 333.5 77H312.5C311.672 77 311 77.6716 311 78.5C311 79.3284 311.672 80 312.5 80H333.5C334.328 80 335 79.3284 335 78.5Z" fill="#424E54"/>
<path d="M152.5 131C151.672 131 151 130.328 151 129.5V117.5C151 116.672 151.672 116 152.5 116C153.328 116 154 116.672 154 117.5V129.5C154 130.328 153.328 131 152.5 131Z" fill="#424E54"/>
<path d="M152.5 188C151.672 188 151 188.672 151 189.5V220.5C151 221.328 151.672 222 152.5 222C153.328 222 154 221.328 154 220.5V189.5C154 188.672 153.328 188 152.5 188Z" fill="#424E54"/>
<path d="M233 78.5C233 79.3284 232.328 80 231.5 80H220.5C219.672 80 219 79.3284 219 78.5C219 77.6716 219.672 77 220.5 77H231.5C232.328 77 233 77.6716 233 78.5Z" fill="#424E54"/>
<path d="M358.801 204.01C358.548 203.23 357.713 202.795 356.94 203.07C342.989 208.029 333 221.348 333 237C333 256.882 349.118 273 369 273C377.567 273 385.435 270.008 391.616 265.011C392.255 264.494 392.319 263.553 391.784 262.93C391.239 262.297 390.285 262.233 389.633 262.756C383.982 267.289 376.808 270 369 270C350.775 270 336 255.226 336 237C336 222.697 345.1 210.519 357.826 205.94C358.614 205.657 359.059 204.806 358.801 204.01Z" fill="#424E54"/>
<path d="M393.846 215.281C393.323 214.684 393.313 213.786 393.851 213.203C394.438 212.567 395.442 212.555 396.014 213.204C397.001 214.324 397.92 215.505 398.764 216.742C399.284 217.506 398.951 218.54 398.1 218.9C397.419 219.188 396.633 218.939 396.214 218.329C395.483 217.266 394.692 216.249 393.846 215.281Z" fill="#424E54"/>
<path d="M403.396 238.673C402.595 238.6 401.997 237.91 402 237.106C402 237.071 402 237.035 402 237C402 234.989 401.82 233.02 401.476 231.109C401.329 230.296 401.827 229.495 402.63 229.307C403.441 229.118 404.253 229.623 404.404 230.442C404.795 232.568 405 234.76 405 237C405 237.083 405 237.166 404.999 237.249C404.993 238.103 404.246 238.75 403.396 238.673Z" fill="#424E54"/>
<path d="M395.163 259.458C394.548 258.915 394.486 257.981 394.992 257.335C397.264 254.435 399.062 251.145 400.267 247.582C400.523 246.826 401.303 246.365 402.081 246.546C402.919 246.74 403.426 247.598 403.153 248.413C401.823 252.395 399.817 256.066 397.27 259.292C396.752 259.948 395.79 260.012 395.163 259.458Z" fill="#424E54"/>
<circle cx="369" cy="237" r="11.5" fill="#268FCA" stroke="#424E54" stroke-width="3"/>
<circle cx="369" cy="201" r="11.5" fill="#80BDE0" stroke="#424E54" stroke-width="3"/>
<path d="M622 180.5C622 179.672 622.672 179 623.5 179H650.5C651.328 179 652 179.672 652 180.5C652 181.328 651.328 182 650.5 182H623.5C622.672 182 622 181.328 622 180.5Z" fill="#424E54"/>
<path d="M683 206C683 193.569 673.549 183.345 661.44 182.123C660.638 182.042 660 181.384 660 180.577C660 179.726 660.709 179.04 661.557 179.119C675.269 180.407 686 191.951 686 206V368C686 382.912 673.912 395 659 395H539C524.088 395 512 382.912 512 368V326.5C512 325.672 512.672 325 513.5 325C514.328 325 515 325.672 515 326.5V368C515 381.255 525.745 392 539 392H659C672.255 392 683 381.255 683 368V206Z" fill="#424E54"/>
<path d="M513.5 315C514.328 315 515 314.328 515 313.5V290.5C515 289.672 514.328 289 513.5 289C512.672 289 512 289.672 512 290.5V313.5C512 314.328 512.672 315 513.5 315Z" fill="#424E54"/>
<path d="M599 180.5C599 179.672 598.328 179 597.5 179H584.5C583.672 179 583 179.672 583 180.5C583 181.328 583.672 182 584.5 182H597.5C598.328 182 599 181.328 599 180.5Z" fill="#424E54"/>
<path d="M513.5 245C512.672 245 512 245.672 512 246.5V263.5C512 264.328 512.672 265 513.5 265C514.328 265 515 264.328 515 263.5V246.5C515 245.672 514.328 245 513.5 245Z" fill="#424E54"/>
<path d="M63.4984 242C62.7485 242 62.111 242.558 62.0588 243.306C62.0198 243.866 62 244.431 62 245V247.5C62 248.328 62.6716 249 63.5 249C64.3284 249 65 248.328 65 247.5V245C65 244.565 65.0132 244.133 65.0393 243.705C65.0942 242.802 64.4031 242 63.4984 242Z" fill="#424E54"/>
<path d="M63.5 282C62.6716 282 62 281.328 62 280.5V266.5C62 265.672 62.6716 265 63.5 265C64.3284 265 65 265.672 65 266.5V280.5C65 281.328 64.3284 282 63.5 282Z" fill="#424E54"/>
<path d="M63.5 290C62.6716 290 62 290.672 62 291.5V393C62 406.255 72.7452 417 86 417H166C179.255 417 190 406.255 190 393V245C190 231.745 179.255 221 166 221H137.5C136.672 221 136 221.672 136 222.5C136 223.328 136.672 224 137.5 224H166C177.598 224 187 233.402 187 245V393C187 404.598 177.598 414 166 414H86C74.402 414 65 404.598 65 393V291.5C65 290.672 64.3284 290 63.5 290Z" fill="#424E54"/>
<path d="M84 222.455C84 223.334 84.7569 224.018 85.6357 224.003C85.7569 224.001 85.8783 224 86 224H87.5C88.3284 224 89 223.328 89 222.5C89 221.672 88.3284 221 87.5 221H86C85.7897 221 85.58 221.003 85.371 221.008C84.5953 221.028 84 221.679 84 222.455Z" fill="#424E54"/>
<path d="M107 222.5C107 221.672 107.672 221 108.5 221H127.5C128.328 221 129 221.672 129 222.5C129 223.328 128.328 224 127.5 224H108.5C107.672 224 107 223.328 107 222.5Z" fill="#424E54"/>
<path d="M343.123 303.102H348.133C349.668 303.102 351.033 302.498 352.229 301.291C353.072 300.436 353.494 298.754 353.494 296.246C353.494 293.855 353.072 292.174 352.229 291.201C351.186 289.994 349.82 289.391 348.133 289.391H343.123V303.102ZM339.607 314.703V288.336L341.471 287.457H348.133C350.805 287.457 352.973 288.307 354.637 290.006C356.219 291.623 357.01 293.703 357.01 296.246C357.01 298.801 356.219 300.881 354.637 302.486C352.961 304.186 350.793 305.035 348.133 305.035H343.123V313.121L339.783 314.703H339.607ZM362.02 314.703H361.844L359.998 313.824L367.803 301.361L359.998 288.213L363.074 286.754H363.25L369.895 297.986L376.926 286.754H377.102L378.947 287.633L371.16 300.096L378.947 313.262L375.889 314.703H375.713L369.051 303.471L362.02 314.703ZM386.857 312.066H391.867C393.637 312.066 395.043 311.51 396.086 310.396C396.848 309.588 397.229 308.111 397.229 305.967C397.229 304.232 396.824 302.885 396.016 301.924C395.113 300.846 393.73 300.307 391.867 300.307H386.857V312.066ZM386.857 298.373H391.867C393.039 298.373 393.982 297.992 394.697 297.23C395.33 296.551 395.646 295.449 395.646 293.926C395.646 292.168 395.266 290.955 394.504 290.287C393.824 289.689 392.945 289.391 391.867 289.391H386.857V298.373ZM383.342 314V288.336L385.205 287.457H391.867C393.848 287.457 395.494 287.996 396.807 289.074C398.365 290.34 399.145 291.963 399.145 293.943C399.145 295.959 398.254 297.635 396.473 298.971C397.047 299.217 397.615 299.586 398.178 300.078C399.889 301.637 400.744 303.57 400.744 305.879C400.744 308.199 399.994 310.104 398.494 311.592C396.889 313.197 394.68 314 391.867 314H383.342Z" fill="#424E54"/>
</svg>
